<?xml version="1.0" encoding="UTF-8" standalone="no"?>
<svg
   xmlns:dc="http://purl.org/dc/elements/1.1/"
   xmlns:cc="http://creativecommons.org/ns#"
   xmlns:rdf="http://www.w3.org/1999/02/22-rdf-syntax-ns#"
   xmlns:svg="http://www.w3.org/2000/svg"
   xmlns="http://www.w3.org/2000/svg"
   xmlns:sodipodi="http://sodipodi.sourceforge.net/DTD/sodipodi-0.dtd"
   xmlns:inkscape="http://www.inkscape.org/namespaces/inkscape"
   version="1.1"
   x="0px"
   y="0px"
   viewBox="0 0 89.151254 89.784079"
   enable-background="new 0 0 100.003 79.997"
   xml:space="preserve"
   id="svg4579"
   sodipodi:docname="icon.svg"
   width="89.151253"
   height="89.784081"
   inkscape:version="0.92.4 (5da689c313, 2019-01-14)"><metadata
     id="metadata4585"><rdf:RDF><cc:Work
         rdf:about=""><dc:format>image/svg+xml</dc:format><dc:type
           rdf:resource="http://purl.org/dc/dcmitype/StillImage" /><dc:title></dc:title></cc:Work></rdf:RDF></metadata><defs
     id="defs4583"><linearGradient
       y2="11.232"
       x2="197.17"
       y1="249.007"
       x1="200.78799"
       gradientUnits="userSpaceOnUse"
       id="Gradient_1"><stop
         id="stop5"
         stop-color="#589632"
         offset="0" /><stop
         id="stop7"
         stop-color="#93B023"
         offset="1" /></linearGradient><linearGradient
       y2="16.927999"
       x2="126.351"
       y1="252.718"
       x1="129.939"
       gradientUnits="userSpaceOnUse"
       id="Gradient_2"><stop
         id="stop10"
         stop-color="#589632"
         offset="0" /><stop
         id="stop12"
         stop-color="#93B023"
         offset="1" /></linearGradient></defs><sodipodi:namedview
     pagecolor="#ffffff"
     bordercolor="#666666"
     borderopacity="1"
     objecttolerance="10"
     gridtolerance="10"
     guidetolerance="10"
     inkscape:pageopacity="0"
     inkscape:pageshadow="2"
     inkscape:window-width="1920"
     inkscape:window-height="1049"
     id="namedview4581"
     showgrid="false"
     fit-margin-top="0"
     fit-margin-left="0"
     fit-margin-right="0"
     fit-margin-bottom="0"
     inkscape:zoom="2.0860432"
     inkscape:cx="67.621308"
     inkscape:cy="64.23464"
     inkscape:window-x="1366"
     inkscape:window-y="0"
     inkscape:window-maximized="1"
     inkscape:current-layer="svg4579" /><circle
     style="color:#000000;clip-rule:nonzero;display:inline;overflow:visible;visibility:visible;opacity:1;isolation:auto;mix-blend-mode:normal;color-interpolation:sRGB;color-interpolation-filters:linearRGB;solid-color:#000000;solid-opacity:1;fill:#f0e64a;fill-opacity:1;fill-rule:nonzero;stroke:#77a42a;stroke-width:4.78100014;stroke-linecap:round;stroke-linejoin:round;stroke-miterlimit:4;stroke-dasharray:none;stroke-dashoffset:0;stroke-opacity:1;color-rendering:auto;image-rendering:optimizeQuality;shape-rendering:auto;text-rendering:auto;enable-background:accumulate"
     id="path5217"
     cx="44.575626"
     cy="44.575626"
     r="42.185127" /><g
     id="g5215"
     transform="matrix(0.32398229,0,0,0.32398229,10.164198,13.392895)"><g
       id="g17" /><g
       id="Layer_1"
       transform="matrix(1.1110724,0,0,1.0470776,-35.302117,-21.530123)"><path
         id="polygon10"
         d="M 248.061,212.048 186.618,151.306 H 152.01 v 35.761 l 58.881,58.682 h 37.17 z"
         inkscape:connector-curvature="0"
         style="fill:url(#Gradient_1)" /><path
         id="polygon12"
         d="m 152.01,151.306 h 34.608 l -14.574,-14.407 h -34.437 v 35.809 l 14.403,14.359 z"
         inkscape:connector-curvature="0"
         style="fill:#f0e64a" /><path
         id="polygon4153"
         d="M 107.19,108.083 248.061,245.749 V 212.048 L 186.618,151.306 172.044,136.898 142.898,108.083 Z"
         inkscape:connector-curvature="0"
         style="fill:#ffffff;fill-opacity:0.172" /></g></g><path
     d="m 71.768797,37.211931 c -1.144008,0 -2.198937,0.593277 -2.734237,1.540821 l -4.450662,7.864991 -5.484145,-15.06709 c -0.419003,-1.138598 -1.538267,-1.91829 -2.823317,-1.960059 -1.321343,-0.03558 -2.4604,0.66444 -2.960234,1.772872 L 49.554255,39.743611 43.615639,6.3839214 c -0.272186,-1.401591 -1.673534,-2.465932 -3.109523,-2.38162 -1.520122,0.03249 -2.79115,0.968428 -2.998176,2.38162 L 32.264637,45.099354 28.01193,24.319936 c -0.249918,-1.229098 -1.314745,-2.168133 -2.640212,-2.328247 -1.30072,-0.162436 -2.608041,0.491175 -3.185407,1.622038 L 15.22906,37.211931 H 4.4207794 v 5.798961 H 17.177257 c 1.190196,0 2.273168,-0.63814 2.788673,-1.64679 l 3.741328,-7.309615 6.030993,29.468966 c 0.27961,1.369875 1.556412,2.352226 3.036942,2.352226 0.02639,0 0.05444,0 0.08248,0 1.514346,-0.0379 2.777128,-1.09915 2.982505,-2.506927 l 5.16247,-38.042487 4.327766,25.049937 c 0.243318,1.261585 1.345261,2.224598 2.70207,2.364601 1.377428,0.124535 2.658353,-0.57394 3.189531,-1.759721 L 55.869805,40.636234 61.041349,54.837 c 0.398381,1.091415 1.454136,1.861825 2.68145,1.952324 1.232262,0.06421 2.400189,-0.509738 2.98003,-1.533084 L 73.629562,43.011666 H 86.90401 v -5.799735 z"
     id="path4577"
     inkscape:connector-curvature="0"
     style="fill:#79a42a;fill-opacity:1;stroke-width:0.79874408" /></svg>